<svg id="Layer_1" data-name="Layer 1" xmlns="http://www.w3.org/2000/svg" viewBox="0 0 697.16 488.48"><defs><style>.cls-1{fill:#231f20;stroke:#231f20;stroke-miterlimit:10;stroke-width:8.36px;}</style></defs><path class="cls-1" d="M581.06,644.57c-8.47,13.61-16.67,27.61-25.71,41-5.94,8.81-14.71,8.49-22.05-.57-5.15-6.34-9.33-13.5-15.07-22,0,5.31.24,9.08,0,12.81-1.18,15.45-14.31,22.37-26.5,13.17a51.18,51.18,0,0,1-14.38-17.53c-5.71-11.48-9.7-23.84-14.41-35.83l3.79-2.12c1.66,2,3.74,3.69,4.92,5.91,5.29,10,10.28,20.18,15.48,30.24,1.13,2.17,2.27,4.79,4.16,6,4.06,2.63,8.63,4.47,13,6.64,1.3-4.84,4.33-10,3.59-14.46-2.43-14.72-6.44-29.18-9.33-43.84-.58-2.94,1.09-6.33,1.72-9.51,2.57,2,6.07,3.49,7.56,6.12,9.84,17.38,19.16,35.05,28.87,52.5,1.85,3.33,4.69,6.1,8.12,10.47L553.29,669c-21.74-12.7-22.48-44.18-12.76-63.92,4.27-8.68,13-8.64,24.39-.41-.76-3.84-1.08-6.8-1.93-9.59q-11.47-37.87-23.12-75.7c-.36-1.18-1.28-2.48-1-3.5a79,79,0,0,1,2.79-8c2.36,1.39,5.89,2.19,6.89,4.24,7.38,15.18,14.61,30.46,21.2,46,8.09,19.08,10.66,39.14,12.33,59.92,2.16,26.91,13.51,51.57,28.18,74.25,1.56,2.42,5.46,3.29,8.27,4.88,1.55-3.13,4.64-6.38,4.4-9.36-1.62-20.19-3.91-40.33-6.07-60.47-.49-4.55-1.94-9.08-1.85-13.6.06-2.92,1.46-7.43,3.47-8.25s6.28,1.14,8.39,3.14c5.64,5.36,10.66,11.39,15.93,17.15l3.17-1.08c0-6.12.53-12.3-.13-18.35-.8-7.33-3.28-14.5-3.67-21.82-.2-3.66,2.65-7.48,4.13-11.23,2.77,2,6.51,3.47,8.15,6.19,8.53,14.12,16.52,28.57,24.69,42.9l2.74-1c-3.35-10.12-6.76-20.23-10.06-30.37-3.39-10.42-8-20.67-9.65-31.37-1.63-10.55,6.43-16.41,17.3-15.89,21.13,1,39.49,9.34,56.76,20.82,3,2,6,4.19,9.07,6.21.42.28,1.15.09,2,.14,10.93-46.65,42.71-78,77.65-107.08,3.53-2.93,6.6-6.5,10.38-9,2.11-1.39,5.26-1.17,7.95-1.67-.85,2.83-.81,6.71-2.68,8.32-13.24,11.39-27.31,21.82-40.28,33.48-21.61,19.43-37.49,42.75-45,71.42-2.17,8.31-.38,14.05,5.83,20.46,18.8,19.37,33.5,41.54,39.87,68.43a35.83,35.83,0,0,1,.91,7.3c.26,11.67-9.14,18-17.89,10.54a109.64,109.64,0,0,1-24.14-29.46c-10.09-18.09-15.87-37.92-14.55-59.25.12-2-1.42-4.8-3.07-6.08-17.71-13.69-36.51-24.77-59.92-24.48-11.26.14-13.85,3.42-9.73,14.11,4.52,11.75,9.81,23.2,14.1,35,2.72,7.5,5.12,15.35,5.9,23.22.41,4.14-3,8.66-4.65,13-3.66-2.11-8.36-3.4-10.8-6.49-7.26-9.23-13.63-19.17-21.24-28.56.36,11,5.86,24.45-7,29.71-6,2.46-15.48-3.68-23.36-5.92,1.72,9.66,4.41,21.65,5.85,33.8,1.15,9.63,2,19.62.6,29.1-.8,5.47-5.22,12.5-9.94,14.8-6.78,3.3-13-2.5-16.17-8.59-7.75-14.93-14.67-30.3-21.88-45.51C582.78,648.89,581.71,646.1,581.06,644.57Zm211.18,23.35c4.46-22.7-20.81-70.41-39.56-77.93C755.4,620.83,765.86,647.4,792.24,667.92ZM555.86,658c10.35-18.18,8.18-42.63-4.36-49.24C537.9,624.65,540,648.75,555.86,658Z" transform="translate(-152.09 -222.34)"/><path class="cls-1" d="M345.16,517c-2.79,33.35-4.51,67.9-9.05,102.07-2.22,16.72-8.94,33-15,49-9.11,24.12-33.65,22.66-48.29,5.45C258.78,657,252,636.67,245.2,616.62,229.82,571.55,215.77,526.1,207,479.11c-2.59-13.81-10-25.59-23-33-11.5-6.53-17.26-4-17.89,9.23-.42,8.8.59,17.67.51,26.5,0,2.56-1.6,5.11-2.47,7.67-1.43-2.35-3.72-4.56-4.15-7.09-1.65-9.68-4-19.51-3.69-29.2.84-23.16,17.08-24.32,31.78-16.89,16.67,8.42,23.94,23.53,26.85,40.73,9.11,54,25.5,105.86,44.28,157,4.27,11.63,11,22.65,18.27,32.76,9.1,12.71,25.14,17.34,35.43-2.19,11.38-21.64,15.64-45.35,19.62-69,9.6-56.89,7.37-113.88-1-170.74-9.11-62-25.17-122.32-43.15-182.18-.86-2.86-3.13-5.34-3.76-8.21-.37-1.72,1.16-3.87,1.83-5.83,1.52,1,4.09,1.68,4.42,3,8.7,33.52,17.64,67,25.54,100.72,7,29.91,14.11,59.9,18.81,90.22C340,453.39,341.87,484.58,345.16,517Z" transform="translate(-152.09 -222.34)"/><path class="cls-1" d="M396.05,483.37c-1.81-6.93-3.49-13.92-5.5-20.8-1.07-3.65.14-9.24-6.89-8.75-.8.05-2.33-5.11-2.9-8-3.74-18.91-7.22-37.88-10.95-56.79-3.27-16.6-7.88-32.68-18-46.68-1.36-1.89-1.19-4.9-1.73-7.39l2.93-1.68L369.66,350c10.17-5,17,3,22.2,11.16,15.37,24.27,22.45,51.26,19,79.82-1.77,14.63-7.83,28.73-12,43.06Zm-2.31-17.64c19.43-24.83,6.36-94.4-19-105.38C381,395.31,387.31,430.07,393.74,465.73Z" transform="translate(-152.09 -222.34)"/><path class="cls-1" d="M412.07,533.63c1.26,1.45,3.1,2.7,3.68,4.38q23,66.91,45.7,134a67.55,67.55,0,0,1,3.39,16.14c.19,2.36-2.26,4.94-3.51,7.42-1.77-1.83-4.81-3.46-5.12-5.52-7-46.37-27.31-88.76-39.18-133.66-1.91-7.24-4.31-14.36-6.49-21.53Z" transform="translate(-152.09 -222.34)"/></svg>